<?xml version="1.0" encoding="UTF-8" standalone="no"?>
<!-- Created with Inkscape (http://www.inkscape.org/) -->

<svg
   xmlns:dc="http://purl.org/dc/elements/1.1/"
   xmlns:cc="http://creativecommons.org/ns#"
   xmlns:rdf="http://www.w3.org/1999/02/22-rdf-syntax-ns#"
   xmlns:svg="http://www.w3.org/2000/svg"
   xmlns="http://www.w3.org/2000/svg"
   xmlns:sodipodi="http://sodipodi.sourceforge.net/DTD/sodipodi-0.dtd"
   xmlns:inkscape="http://www.inkscape.org/namespaces/inkscape"
   width="1000"
   height="291"
   viewBox="0 0 264.58333 76.993752"
   version="1.1"
   id="svg8"
   inkscape:version="0.92.4 (5da689c313, 2019-01-14)"
   sodipodi:docname="Hot Wheels.svg">
  <defs
     id="defs2">
    <style
       id="style10">.cls-1{fill:#fff;}.cls-2{fill:#eb2227;}.cls-3{fill:#e9292b;}.cls-4{fill:#fcee1f;}</style>
  </defs>
  <sodipodi:namedview
     id="base"
     pagecolor="#ffffff"
     bordercolor="#666666"
     borderopacity="1.0"
     inkscape:pageopacity="0.0"
     inkscape:pageshadow="2"
     inkscape:zoom="0.98994949"
     inkscape:cx="492.89322"
     inkscape:cy="144.97387"
     inkscape:document-units="px"
     inkscape:current-layer="layer1"
     showgrid="false"
     units="px"
     inkscape:window-width="1920"
     inkscape:window-height="1017"
     inkscape:window-x="-8"
     inkscape:window-y="-8"
     inkscape:window-maximized="1" />
  <metadata
     id="metadata5">
    <rdf:RDF>
      <cc:Work
         rdf:about="">
        <dc:format>image/svg+xml</dc:format>
        <dc:type
           rdf:resource="http://purl.org/dc/dcmitype/StillImage" />
        <dc:title></dc:title>
      </cc:Work>
    </rdf:RDF>
  </metadata>
  <g
     inkscape:label="Layer 1"
     inkscape:groupmode="layer"
     id="layer1"
     transform="translate(0,-220.00623)">
    <g
       id="g91"
       transform="matrix(0.29084699,0,0,0.29084699,117.67054,220.05244)">
      <path
         style="fill:#ffffff;stroke-width:1.23226464"
         inkscape:connector-curvature="0"
         class="cls-1"
         d="M 415.80131,19.125412 C 379.14144,4.720239 338.00844,-0.78798373 298.72385,-0.28275524 261.44784,0.19782795 224.2581,5.5828243 187.53661,11.830406 145.81213,18.97754 104.44501,27.849846 63.077888,36.894668 -8.8247511,52.704623 -81.232619,70.942139 -154.82346,77.029526 c -22.64902,1.934655 -45.59379,2.723305 -67.77455,-2.895822 -21.84806,-5.557513 -41.3548,-17.251704 -58.4956,-31.693846 a 69.647595,69.647595 0 0 0 2.40291,16.746476 c 2.72331,10.659089 8.97089,19.568362 15.60047,28.181892 -14.86111,1.232264 -29.8208,1.983946 -44.71888,0.788649 a 168.72167,168.72167 0 0 1 -40.93583,-8.823014 c -12.00226,-4.1897 -24.33723,-9.131081 -34.50341,-16.845058 -7.01159,-5.360351 -14.94737,-12.766261 -21.3305,-18.668808 0,14.035494 7.39359,28.933573 15.14453,40.664732 a 209.2755,209.2755 0 0 0 39.65428,45.113203 135.54911,135.54911 0 0 0 48.28012,27.10982 165.9614,165.9614 0 0 0 60.13452,6.4201 208.43756,208.43756 0 0 0 32.55643,-4.76886 c 8.77372,-1.97162 17.33796,-4.62099 26.08704,-6.76513 3.22853,-0.77633 6.51868,-1.67588 9.75953,-0.50523 3.89396,1.38013 4.27596,5.3357 3.79538,8.95856 a 36.031417,36.031417 0 0 1 -13.44401,23.16658 18.11429,18.11429 0 0 1 -21.62624,1.02278 c -6.23526,-3.99254 -11.94065,-8.10831 -19.42049,-9.52541 -9.45147,-1.83607 -19.87643,-0.80097 -29.3279,0.13555 -10.73302,1.10904 -21.41676,2.89582 -32.24836,2.89582 -14.78718,0 -28.34209,-3.57357 -41.99558,-8.74908 -9.75954,-3.69679 -20.24611,-8.47798 -29.7099,-12.82787 12.66768,28.6748 40.96047,48.97019 67.26932,64.3735 34.35554,20.08591 72.60503,32.90147 111.82802,39.49408 39.22298,6.59262 79.308546,5.6561 118.814949,0.73936 A 667.98599,667.98599 0 0 0 61.020006,234.057 c 34.614313,-11.02876 68.341394,-24.52206 101.723444,-38.84098 35.63709,-15.30472 70.9045,-31.53365 107.44115,-44.69423 28.95822,-10.44961 58.81599,-19.77785 89.38847,-23.90594 30.06726,-4.05415 66.14797,-4.46079 90.49752,16.46306 a 52.691634,52.691634 0 0 1 18.34842,37.87981 123.99046,123.99046 0 0 1 -0.32039,25.11355 c -0.66543,5.29874 -1.23227,10.94251 -2.87118,16.01944 C 502.56506,188.9438 516.57591,132.7895 494.80179,86.776739 483.88393,63.560874 459.23863,35.760984 415.80131,19.125412 Z"
         id="path14" />
      <path
         style="fill:#eb2227;stroke-width:1.23226464"
         inkscape:connector-curvature="0"
         class="cls-2"
         d="M 328.45839,9.3905219 C 251.52811,1.9969343 119.30612,33.444327 10.213737,57.448841 -77.27705,76.647524 -148.3171,88.748362 -196.05503,86.912288 c -26.75247,-1.786784 -53.06132,-9.45147 -74.18233,-26.690851 3.33943,8.280818 19.55604,31.619909 26.45672,34.18302 -27.87383,2.267366 -56.59792,5.54519 -84.26226,-0.468261 -22.0945,-4.744219 -46.46869,-12.803229 -63.90524,-29.032154 13.44401,25.113553 34.03515,48.280128 56.68417,65.310028 40.66474,30.54784 97.04084,29.57435 143.4356,14.59001 0.82562,-0.2711 10.26477,-3.00673 15.19383,-3.00673 11.91599,0.4313 20.59114,8.72444 13.76439,28.09564 -5.70538,14.60233 -17.36261,25.97613 -30.80661,26.19794 -17.91713,0 -19.11243,-14.18336 -39.53105,-13.4933 -35.73568,-0.94884 -58.68044,14.78718 -106.62786,-11.95296 9.75954,9.62398 66.09868,71.36044 186.6388,84.15135 30.80661,3.21621 65.310022,0.55452 81.329462,-1.15833 104.619265,-10.9918 186.170538,-46.56728 258.147108,-77.94074 61.04639,-27.51647 134.31684,-56.16662 189.12797,-59.1487 45.95115,-3.69679 81.68682,11.16432 95.56212,39.7775 6.16133,12.76626 7.60308,27.39324 4.49777,42.52545 C 521.41871,133.23311 501.13563,22.526463 328.45839,9.3905219 Z"
         id="path16" />
      <path
         style="fill:#e9292b;stroke-width:1.23226464"
         inkscape:connector-curvature="0"
         class="cls-3"
         d="M -331.87524,132.80182 Z"
         id="path18" />
      <path
         style="fill:#fcee1f;stroke-width:1.23226464"
         inkscape:connector-curvature="0"
         class="cls-4"
         d="m 14.920988,145.40789 c -1.02278,36.68452 -10.7576702,71.61922 -37.497812,77.4848 -24.904068,4.11576 -38.200203,-35.32903 -34.860766,-62.16775 1.601944,-37.09117 15.317049,-63.363048 36.783099,-69.277918 20.34468832,-5.557514 36.524323,17.621388 35.600124,53.960868 m -35.316703,-32.3223 c -6.531003,1.39246 -10.314055,18.73042 -11.090382,43.27713 -0.776326,24.54671 1.059748,46.41941 9.858117,44.55869 8.798369,-1.86072 9.550051,-24.74387 10.178506,-49.29059 0.628455,-24.54671 -2.710982,-39.8884 -8.946241,-38.54523 z M -3.119366,82.278973 c 23.881288,-6.51868 43.979524,6.161323 51.755113,24.164707 v 0 c 0.985812,2.25505 2.107173,2.69866 3.179243,2.71098 2.193431,0 16.536991,-2.46453 21.355145,-8.46565 0,0 4.929059,17.85551 -16.142666,28.50228 a 5.569836,5.569836 0 0 0 -2.994403,4.63331 c 0,2.96976 -1.577299,18.26216 -2.464529,22.47651 -0.320389,1.83607 -1.885365,5.91487 1.786784,6.05042 3.068339,0.12322 12.187097,-2.14414 17.892482,-17.76926 0.172517,-0.99813 0,0 0,0 -4.214345,34.50341 -25.618781,60.27006 -47.072508,67.23236 C 9.1663121,216.6451 11.187226,206.77467 13.738014,200.72425 22.721223,177.5207 22.89374,166.07297 24.249231,151.28579 25.617045,135.84552 21.920251,90.27637 -3.1563339,82.278973 Z"
         id="path20" />
      <path
         style="fill:#fcee1f;stroke-width:1.23226464"
         inkscape:connector-curvature="0"
         class="cls-4"
         d="m -28.097369,78.372694 c -20.86224,13.27149 -36.413419,46.826056 -38.298784,81.970246 -0.36968,7.13481 -3.524277,58.08895 34.059793,75.04491 -24.645292,3.86931 -51.373111,7.13481 -64.558342,7.5661 0,0 3.844666,-12.42122 4.620992,-33.49295 0.677746,-17.39957 -2.008591,-31.89101 -8.35475,-30.94216 -4.67029,0.70239 -10.10457,17.1408 -10.51122,31.64455 a 118.74102,118.74102 0 0 0 3.69679,33.27115 330.97395,330.97395 0 0 1 -75.2544,-5.79165 c 4.53474,-0.71471 42.59939,-22.18076 47.47916,-66.96125 5.37267,-49.93137 -38.49595,-62.9564 -58.52025,-71.274189 28.62551,0.887229 48.66213,-0.813295 90.27571,-6.974618 0,0 -5.10158,8.046687 -5.15087,30.597127 -0.0863,20.59114 4.31293,31.45972 8.3794,31.43507 4.830478,-0.0986 9.340567,-10.76999 10.116893,-32.63036 0.850263,-22.47651 -2.969757,-31.016103 -2.969757,-31.016103 19.198682,-3.450341 32.211396,-5.21248 64.989635,-12.445873 z"
         id="path22" />
      <path
         style="fill:#fcee1f;stroke-width:1.23226464"
         inkscape:connector-curvature="0"
         class="cls-4"
         d="m 237.56656,25.754996 c 2.13181,19.05081 -0.86259,45.125529 -8.3794,46.912313 -6.16133,1.466395 -9.66096,-27.590404 -5.21248,-45.100884 -7.89882,1.158328 -30.43694,4.781186 -40.3197,6.469389 34.36786,39.149046 18.20055,91.889976 -1.23227,129.584946 11.50936,-5.21248 31.78011,-13.89995 42.96907,-18.48397 -5.34803,-19.34655 -1.74981,-45.988115 5.01532,-48.1569 5.92719,-1.934656 11.49703,29.57435 5.95184,43.74539 10.27708,-4.42383 24.52206,-9.4145 39.51872,-14.59001 -19.1001,-8.50263 -35.50154,-66.739451 1.23227,-104.175649 -8.61353,0.492906 -31.5583,2.834208 -39.54337,3.795375 z M 46.910577,62.230028 c 8.268495,1.996269 44.75585,13.899945 47.010894,64.582992 2.057882,46.39476 -17.042219,74.29323 -22.77225,81.56359 0,0 12.495164,-4.16505 25.495555,-9.15573 14.134074,-5.42196 28.070984,-11.00412 28.070984,-11.00412 0,0 -3.93092,-10.32638 0.91188,-28.34209 5.23712,-19.51907 12.72929,-25.10123 12.72929,-25.10123 0,0 -1.81143,7.91114 3.90628,22.73529 5.71771,14.82414 12.08852,18.48397 12.08852,18.48397 l 21.46605,-9.61167 c 0,0 -6.6912,-14.70091 3.41337,-36.7831 8.53959,-18.64416 19.02616,-41.330151 10.38799,-68.637135 -4.4608,-14.060139 -10.2278,-22.180762 -13.09897,-25.618781 -3.33944,0.579165 -30.53552,5.754676 -36.56129,6.986941 6.61726,2.698659 20.84991,11.238253 23.41302,34.88541 1.83608,16.228925 -6.51868,30.128865 -6.51868,30.128865 0,0 0.83794,-7.25803 -5.00299,-15.62511 -5.6068,-7.911139 -11.09038,-9.858117 -11.09038,-9.858117 a 60.553482,60.553482 0 0 1 -7.04855,23.228187 49.142712,49.142712 0 0 1 -11.54632,14.50376 c 0,0 5.27409,-20.295403 0,-40.886544 C 117.35914,59.703885 107.16832,52.310298 102.84307,49.968995 93.909149,51.903651 55.277653,60.356986 46.910577,62.230028 Z"
         id="path24" />
      <path
         style="fill:#fcee1f;stroke-width:1.23226464"
         inkscape:connector-curvature="0"
         class="cls-4"
         d="m 443.55191,111.52061 a 20.048945,20.048945 0 0 1 -9.51309,-0.89955 c -5.38499,-1.6882 -9.1434,-3.22853 -13.75207,-4.92906 l 0.33271,-18.483969 c 2.2304,4.694928 9.1927,10.314055 13.00039,9.747213 a 2.4645292,2.4645292 0 0 0 2.1195,-1.873042 c 0.32039,-1.515685 -0.52988,-3.511954 -2.40292,-5.594481 -1.87304,-2.082527 -5.18783,-5.44661 -8.07133,-8.625852 -12.70465,-14.097107 -7.39359,-23.721094 -4.38686,-26.259559 4.20202,-3.622858 9.32824,-2.784918 11.4847,-2.341303 7.78792,1.62659 13.88763,8.120624 16.78345,14.590013 a 22.057536,22.057536 0 0 1 2.13182,12.322646 c -1.76214,-4.436152 -12.90182,-16.943638 -16.90668,-11.965289 -2.69865,3.314792 3.6968,8.132946 10.21548,13.936913 8.89695,7.898816 9.98134,13.678137 7.77559,22.00825 a 10.474249,10.474249 0 0 1 -8.81069,8.34243 z"
         id="path26" />
      <path
         style="fill:#fcee1f;stroke-width:1.23226464"
         inkscape:connector-curvature="0"
         class="cls-4"
         d="m 294.31234,79.173666 c 10.11689,-9.476115 21.7125,-17.769255 25.97614,-29.894739 4.26363,-12.125484 4.22667,-20.44327 -4.31293,-25.778975 -8.00972,-4.990672 -22.73528,-4.719574 -36.77077,11.706513 -15.32938,17.88016 -18.23752,48.908582 -13.83833,63.94221 3.79537,12.951105 11.17664,24.891745 25.38465,22.106825 24.83013,-4.92906 23.96754,-40.787956 23.96754,-40.787956 0,0 -9.29127,16.475378 -17.69532,17.029897 -8.84766,0.542196 -10.91786,-10.609798 -2.71098,-18.323775 z m -7.67701,-8.231527 a 58.44631,58.44631 0 0 1 4.00486,-21.318178 c 4.32525,-10.387991 10.73303,-16.130344 14.95969,-12.322646 4.04183,3.635181 0.85027,10.745347 -2.62472,15.070596 a 72.481804,72.481804 0 0 1 -10.16618,10.375668 25.138198,25.138198 0 0 0 -6.17365,8.19456 z"
         id="path28" />
      <path
         style="fill:#fcee1f;stroke-width:1.23226464"
         inkscape:connector-curvature="0"
         class="cls-4"
         d="m 350.25715,87.676292 c -8.34243,0.6531 -9.26663,-8.132946 -2.66169,-14.466786 8.18224,-7.763267 17.5721,-14.553045 20.9485,-24.423485 3.37641,-9.870439 3.33944,-16.67254 -3.69679,-20.948498 -6.54333,-4.091119 -18.66881,-3.499632 -29.89474,9.944375 -12.40891,14.614658 -15.03363,40.233439 -11.50935,52.494472 3.52427,12.26103 10.10457,20.43095 22.48882,17.15312 18.90294,-4.92905 23.88129,-33.271141 23.88129,-33.271141 0,0 -10.65909,12.803229 -19.55604,13.517943 z m -5.81629,-38.471301 c 3.45035,-8.502626 8.62586,-13.172908 12.08852,-10.141538 3.46266,3.031371 0.75168,8.749079 -2.05788,12.322646 a 56.437719,56.437719 0 0 1 -8.19456,8.514949 20.775981,20.775981 0 0 0 -4.92906,6.715842 47.947416,47.947416 0 0 1 3.09298,-17.411899 z"
         id="path30" />
      <path
         style="fill:#fcee1f;stroke-width:1.23226464"
         inkscape:connector-curvature="0"
         class="cls-4"
         d="m 377.41627,29.414822 c 6.01345,21.256564 1.7991,59.037797 -11.57097,75.168138 16.50002,-1.63891 31.92798,-1.91001 46.45638,0.43129 l 0.82561,-29.759185 c -5.50822,13.480974 -35.93283,30.658745 -11.6449,-38.890271 a 220.09478,220.09478 0 0 0 -24.06612,-6.949972 z"
         id="path32" />
    </g>
  </g>
</svg>
